<?xml version="1.0" standalone="no"?>
<!DOCTYPE svg PUBLIC "-//W3C//DTD SVG 20010904//EN"
 "http://www.w3.org/TR/2001/REC-SVG-20010904/DTD/svg10.dtd">
<svg version="1.0" xmlns="http://www.w3.org/2000/svg"
 width="300.000000pt" height="300.000000pt" viewBox="0 0 300.000000 300.000000"
 preserveAspectRatio="xMidYMid meet">
<metadata>
Created by potrace 1.14, written by Peter Selinger 2001-2017
</metadata>
<g transform="translate(0.000000,300.000000) scale(0.100000,-0.100000)"
fill="#000000" stroke="none">
<path d="M0 1500 l0 -1500 1500 0 1500 0 0 1500 0 1500 -1500 0 -1500 0 0
-1500z m1337 1104 c30 -21 60 -47 67 -58 9 -16 10 -67 5 -196 -4 -96 -8 -182
-8 -190 1 -8 2 -224 4 -480 2 -256 6 -511 9 -567 5 -82 4 -109 -9 -132 -11
-22 -12 -32 -3 -37 8 -5 9 -58 4 -198 -12 -353 -14 -357 -150 -364 -94 -5
-236 12 -277 34 -36 18 -75 66 -89 109 -11 35 -14 36 -49 31 -78 -12 -109 -9
-166 14 -81 32 -96 43 -125 92 -18 28 -35 44 -56 50 -22 6 -43 26 -77 76 -54
78 -70 122 -61 174 8 51 -1 73 -41 97 -29 17 -35 26 -35 53 0 18 9 47 20 65
l19 32 -24 43 c-31 55 -34 130 -5 173 l19 30 -31 28 c-29 27 -30 31 -24 82 3
29 14 80 25 113 15 49 17 69 8 105 -8 37 -6 61 12 132 27 106 37 126 99 200
28 32 55 75 61 97 8 25 41 70 94 127 45 49 90 101 101 116 26 38 155 98 261
120 50 10 106 29 126 42 28 19 48 23 93 22 31 -1 60 1 64 5 16 17 87 -4 139
-40z m623 10 c25 -13 90 -32 144 -44 112 -24 228 -78 254 -119 9 -14 47 -59
85 -99 73 -79 107 -127 107 -154 0 -10 22 -42 50 -73 62 -68 83 -110 110 -216
18 -68 20 -91 11 -120 -7 -24 -7 -46 -1 -70 6 -18 15 -61 20 -94 6 -33 13 -70
15 -82 4 -15 -4 -33 -24 -55 l-29 -33 19 -35 c25 -49 23 -97 -7 -158 -14 -29
-23 -58 -20 -65 4 -6 13 -23 21 -37 27 -46 19 -77 -26 -106 l-42 -26 6 -62 c5
-48 2 -71 -14 -105 -33 -74 -88 -141 -121 -148 -22 -4 -38 -19 -59 -53 -23
-38 -40 -52 -82 -69 -28 -12 -63 -28 -77 -35 -14 -8 -36 -13 -50 -11 -14 2
-47 6 -73 8 -48 5 -49 4 -63 -29 -8 -19 -30 -52 -50 -74 -37 -41 -45 -44 -209
-68 -65 -10 -146 -4 -162 12 -4 3 27 6 68 6 41 0 90 5 109 11 19 6 55 12 79
14 78 7 158 82 122 118 -14 14 -15 64 -1 72 6 4 42 -6 80 -21 l69 -27 41 22
c22 11 54 21 71 21 69 0 115 49 86 93 -22 35 -12 45 43 39 59 -5 67 0 122 81
42 61 45 77 33 139 -11 57 0 86 43 106 30 14 38 23 40 49 4 40 -22 68 -72 77
-27 5 -45 3 -62 -9 -23 -15 -24 -19 -24 -139 l0 -124 -33 -44 -33 -43 -62 4
c-47 2 -62 0 -62 -10 0 -8 -4 -20 -9 -28 -7 -12 -18 -9 -58 14 -26 16 -58 39
-70 52 -12 12 -28 23 -35 23 -18 -1 -58 -66 -58 -96 0 -37 53 -78 108 -84 44
-5 45 -6 28 -23 -24 -24 -52 -21 -123 12 -51 24 -62 34 -68 60 -14 64 -76 64
-149 0 -54 -47 -91 -47 -101 2 -12 52 16 68 34 19 5 -16 15 -30 21 -30 6 0 34
15 63 34 28 19 70 38 92 41 60 11 85 30 85 67 l0 31 88 -6 c52 -4 107 -14 133
-26 86 -37 105 -37 144 2 l35 35 0 130 c0 123 -1 132 -22 146 -15 11 -26 12
-39 5 -16 -8 -18 -23 -17 -119 2 -135 -6 -151 -65 -121 -27 14 -70 21 -159 26
-118 7 -122 7 -140 -15 -10 -12 -18 -33 -18 -46 0 -19 -5 -24 -27 -24 -16 0
-48 -9 -72 -20 -24 -11 -45 -20 -47 -20 -2 0 -4 20 -4 44 0 42 1 44 35 50 37
7 78 49 73 75 -4 17 -13 17 -105 5 -34 -4 -53 -3 -53 4 0 5 -14 24 -32 41
l-32 31 28 0 c15 0 45 -9 67 -20 42 -22 52 -20 112 24 31 23 39 18 56 -36 7
-20 19 -42 27 -49 22 -18 295 -34 305 -17 13 21 10 50 -7 69 -14 16 -14 19 6
39 23 23 22 42 -2 103 -8 20 -17 27 -32 25 -18 -3 -21 -11 -24 -57 -2 -29 -10
-63 -18 -76 -13 -20 -20 -21 -97 -17 -45 2 -89 8 -98 13 -9 4 -19 25 -23 46
-8 50 -62 143 -82 143 -13 0 -15 -7 -10 -30 3 -16 3 -30 0 -30 -13 0 -50 25
-62 42 -10 13 -26 18 -60 18 -57 0 -68 7 -77 43 -6 23 -12 28 -34 25 -25 -3
-26 -6 -29 -69 -4 -85 7 -95 99 -91 66 2 69 1 75 -23 4 -14 5 -28 3 -30 -4 -4
-220 12 -223 17 -1 2 0 50 3 107 l6 104 35 12 c29 10 35 17 35 41 0 25 -3 29
-27 27 -15 -1 -48 -14 -73 -28 l-45 -27 0 -135 c0 -77 5 -143 11 -154 8 -16 7
-25 -6 -39 -11 -12 -15 -31 -13 -56 4 -50 37 -73 126 -86 65 -11 72 -14 72
-35 0 -17 -6 -23 -23 -23 -13 0 -28 -5 -35 -12 -13 -13 -17 -175 -4 -194 4 -6
30 -25 57 -43 42 -27 45 -31 20 -25 -110 25 -112 28 -114 175 -1 106 -12 133
-52 127 l-24 -3 0 -137 c0 -88 -4 -141 -11 -148 -18 -18 -26 47 -23 204 1 90
-3 152 -10 171 -7 17 -9 39 -4 55 8 27 9 115 12 926 l2 531 29 47 c44 69 91
88 200 80 60 -5 98 -13 130 -30z m25 -1956 c-4 -29 -9 -55 -11 -57 -6 -7 -44
31 -44 44 0 16 39 65 52 65 6 0 7 -19 3 -52z m-7 -153 c-7 -7 -183 -8 -220 0
-28 5 -38 12 -38 26 0 23 -4 23 116 3 97 -17 98 -17 113 3 16 21 16 21 25 -4
4 -13 6 -26 4 -28z"/>
<path d="M1230 2612 c0 -5 -14 -15 -31 -22 -43 -18 -69 -64 -69 -122 0 -37 -3
-46 -14 -42 -8 3 -17 16 -20 30 -10 38 -68 60 -171 67 -88 5 -91 4 -165 -31
-84 -41 -107 -70 -118 -149 -7 -44 -10 -48 -41 -54 -51 -11 -74 -39 -79 -102
-4 -52 -5 -54 -40 -63 -70 -18 -147 -153 -168 -299 -7 -45 7 -56 73 -62 53 -5
63 -3 82 16 28 28 27 45 -6 70 -23 19 -28 20 -43 6 -9 -8 -22 -15 -28 -15 -27
0 -9 38 84 173 16 24 33 37 48 37 29 0 46 18 46 50 0 26 44 105 71 126 8 6 48
14 89 18 41 3 91 9 111 12 33 5 42 1 108 -56 39 -33 80 -79 91 -100 38 -74 98
-82 160 -20 32 32 40 47 40 78 0 20 7 46 15 56 8 11 15 28 15 38 0 19 16 23
39 9 11 -7 10 -15 -8 -44 -23 -37 -27 -67 -10 -67 20 0 77 31 82 44 3 8 8 33
12 58 10 65 -12 88 -93 95 l-63 6 -45 -44 c-34 -33 -44 -51 -44 -75 0 -17 -7
-38 -16 -45 -9 -7 -19 -22 -23 -32 -6 -16 -21 -4 -99 78 l-91 98 -91 -7 -91
-7 3 48 c3 44 6 50 38 65 29 15 51 16 135 10 99 -7 99 -7 122 -41 17 -25 20
-38 13 -45 -8 -8 -21 1 -44 28 -32 39 -33 39 -77 30 -54 -11 -62 -43 -14 -55
17 -5 46 -27 66 -50 49 -58 84 -58 142 -1 24 23 50 42 59 42 10 0 28 11 41 25
22 25 24 25 60 10 56 -23 86 -20 98 13 19 48 23 120 8 138 -36 43 -149 101
-149 76z m59 -108 c44 -37 39 -46 -16 -38 -27 3 -50 8 -52 10 -2 2 -1 15 3 29
8 32 26 32 65 -1z"/>
<path d="M1064 2602 c-12 -9 -44 -54 -44 -63 0 -7 55 -29 72 -29 14 0 41 67
35 84 -7 16 -44 21 -63 8z"/>
<path d="M870 2216 c0 -8 18 -35 39 -60 37 -43 39 -48 34 -98 -9 -99 24 -167
83 -171 19 -1 35 -11 46 -29 10 -16 21 -28 26 -28 12 0 150 113 168 138 18 27
15 61 -7 75 -12 8 -27 2 -64 -27 -44 -33 -50 -35 -65 -21 -26 24 -51 18 -63
-15 -19 -50 -41 -34 -50 35 -5 33 -10 75 -13 92 -4 25 -19 44 -60 78 -59 48
-74 54 -74 31z"/>
<path d="M646 2187 c-29 -44 -46 -104 -33 -120 28 -34 58 -46 90 -35 47 16 52
24 23 43 -28 18 -31 31 -16 55 8 12 23 1 83 -58 58 -57 80 -73 98 -70 20 2 25
10 27 39 3 33 -2 41 -60 94 -72 65 -92 75 -153 75 -35 0 -48 -5 -59 -23z"/>
<path d="M1317 2113 c-4 -3 -7 -36 -7 -72 l0 -66 -70 -67 -69 -67 34 -21 c19
-12 35 -28 35 -36 0 -21 -17 -17 -54 11 -65 50 -82 20 -34 -60 41 -68 67 -78
142 -49 13 5 16 -2 16 -46 l0 -53 -24 26 c-28 31 -71 44 -89 28 -8 -6 -33 -52
-57 -102 -42 -88 -44 -91 -58 -71 -20 31 -47 27 -62 -8 -9 -22 -24 -33 -62
-46 -42 -14 -55 -24 -84 -70 -19 -30 -38 -62 -41 -72 -4 -9 -14 -27 -24 -39
-9 -13 -20 -48 -24 -78 -6 -52 -8 -55 -35 -55 -34 0 -53 29 -65 97 -8 52 -21
62 -45 37 -30 -31 -34 -76 -9 -102 19 -21 20 -25 5 -41 -9 -10 -16 -27 -16
-38 0 -39 22 -45 137 -39 176 11 171 9 199 72 13 30 26 54 30 54 3 0 25 -14
49 -31 l43 -31 43 20 c24 11 59 22 77 26 l34 6 -48 -47 -48 -46 -58 12 c-64
13 -78 10 -78 -20 0 -28 33 -56 80 -69 31 -8 40 -15 36 -28 -3 -9 -8 -29 -12
-44 l-6 -28 -28 20 c-15 11 -45 23 -66 28 -29 6 -40 13 -42 29 -2 11 -14 31
-27 43 -24 22 -26 22 -150 11 -69 -6 -139 -18 -155 -26 -46 -24 -55 -2 -55
127 0 86 -3 111 -15 118 -21 13 -26 12 -44 -6 -13 -12 -16 -40 -16 -143 0
-115 2 -131 21 -155 36 -45 52 -49 121 -25 48 16 179 37 240 39 4 0 11 -15 16
-32 9 -34 33 -52 87 -64 30 -7 30 -7 5 -13 -16 -4 -32 -21 -44 -45 -15 -30
-32 -44 -80 -67 -69 -33 -132 -39 -122 -13 3 9 6 19 6 23 0 4 15 5 33 3 24 -2
41 4 70 28 42 36 46 58 16 106 -24 39 -69 49 -69 15 0 -14 -16 -25 -62 -42
-38 -14 -63 -19 -65 -12 -13 39 -29 46 -79 34 l-49 -11 -37 43 c-33 36 -38 49
-39 92 0 28 -2 85 -2 128 -2 92 -17 112 -76 103 -44 -7 -70 -33 -77 -78 -6
-34 -4 -36 30 -48 20 -6 41 -20 46 -30 13 -25 13 -73 -1 -103 -14 -30 10 -81
71 -149 39 -45 45 -48 91 -48 52 0 56 -4 38 -44 -17 -37 9 -70 71 -91 28 -9
54 -15 57 -11 3 3 18 -1 34 -10 33 -16 58 -12 135 22 l52 23 5 -37 c2 -20 0
-41 -4 -47 -34 -36 34 -115 100 -115 21 0 54 -7 74 -15 24 -10 55 -13 104 -9
127 10 129 10 147 54 19 48 22 210 5 258 -9 25 -8 42 5 79 29 84 16 129 -36
121 -22 -3 -23 -8 -28 -103 -5 -80 -11 -109 -30 -142 -21 -38 -28 -43 -79 -54
-31 -6 -59 -13 -63 -16 -5 -2 -8 -2 -8 1 0 3 27 20 61 36 73 37 94 74 87 157
-5 57 -28 93 -60 93 -15 0 -19 6 -16 27 3 26 6 28 63 33 66 6 96 19 119 52 21
30 20 64 -2 86 -16 16 -16 22 -5 48 7 18 12 77 13 156 l0 126 -43 25 c-24 14
-56 27 -73 29 -26 3 -29 0 -29 -26 0 -24 6 -31 34 -41 l34 -11 4 -106 4 -106
-55 -12 c-79 -16 -160 -10 -164 13 -6 28 16 49 38 37 29 -15 126 -12 139 4 18
22 3 144 -20 156 -25 14 -25 14 -40 -22 -17 -44 -25 -48 -86 -48 -29 0 -53 -4
-53 -10 0 -14 -38 -50 -53 -50 -7 0 -13 12 -12 28 0 48 -28 31 -62 -37 -18
-35 -33 -77 -33 -92 0 -24 -5 -29 -34 -34 -19 -4 -42 -5 -53 -2 -12 3 -9 5 9
6 31 1 45 32 34 75 -8 31 64 124 102 132 15 3 44 11 65 19 31 11 42 11 63 0
14 -7 33 -11 43 -8 34 9 64 82 50 122 -7 17 -3 33 13 62 25 44 33 47 48 19 6
-10 28 -25 51 -31 62 -19 69 -5 72 127 l2 109 -30 3 c-43 5 -55 19 -55 62 0
33 6 43 42 73 41 34 41 35 46 114 5 90 -6 123 -42 123 -12 0 -26 -3 -29 -7z
m-123 -1338 c-2 -65 -39 -72 -99 -19 l-40 36 46 -26 c51 -29 69 -22 69 27 0
19 4 27 13 24 7 -2 11 -20 11 -42z m-124 -105 c12 -23 -2 -60 -24 -60 -17 0
-26 22 -26 66 0 31 2 34 20 24 11 -6 24 -19 30 -30z m110 -135 c103 6 110 6
110 -12 0 -20 0 -20 -174 -22 -49 0 -91 0 -92 2 -1 1 0 15 3 30 5 26 6 27 24
11 16 -14 33 -16 129 -9z"/>
<path d="M526 1971 l-49 -50 17 -26 c14 -21 24 -26 47 -23 16 3 29 4 29 2 0
-1 -7 -18 -15 -37 -8 -20 -15 -50 -15 -67 0 -28 -3 -30 -35 -30 -50 0 -93 -25
-101 -58 -12 -55 -16 -63 -27 -59 -7 2 -10 18 -8 38 7 70 7 74 -14 74 -25 0
-41 -33 -61 -129 -18 -90 -13 -102 49 -109 23 -2 57 -10 74 -18 48 -20 58 -4
58 87 l0 75 31 -6 c61 -11 86 19 98 115 4 30 14 92 23 137 14 76 14 84 -1 108
-24 36 -46 31 -100 -24z"/>
<path d="M730 2007 c-21 -10 -30 -30 -52 -112 -36 -135 -35 -147 7 -184 63
-55 99 -37 66 32 -24 49 -25 69 -10 135 18 79 17 77 42 54 26 -24 75 -45 88
-36 18 11 8 34 -27 66 -33 30 -72 57 -84 57 -3 1 -16 -5 -30 -12z"/>
<path d="M785 1874 c-21 -22 -19 -60 7 -94 23 -32 26 -66 13 -144 -7 -44 -6
-48 11 -44 14 2 27 26 47 82 39 114 40 114 102 61 60 -52 73 -80 43 -96 -11
-6 -26 -27 -35 -46 -10 -26 -17 -33 -26 -24 -8 8 -6 25 7 66 14 44 15 59 5 71
-22 27 -36 14 -73 -66 -40 -87 -41 -96 -25 -170 9 -44 14 -50 35 -50 39 0 82
27 107 67 14 22 36 40 56 47 75 25 95 108 47 190 -15 25 -37 51 -49 57 -12 6
-41 32 -65 57 -39 42 -44 44 -56 27 -12 -17 -15 -17 -74 3 -55 18 -64 19 -77
6z"/>
<path d="M619 1647 c-20 -38 -20 -42 -5 -73 10 -22 21 -32 30 -28 27 10 108
-98 87 -119 -8 -8 -21 -2 -51 22 -22 18 -48 31 -58 29 -9 -2 -30 -29 -46 -60
-24 -49 -31 -56 -46 -48 -31 16 -60 11 -92 -15 -37 -31 -53 -28 -53 10 0 27 4
29 60 40 67 14 102 46 125 115 17 51 8 72 -27 68 -26 -3 -28 -7 -34 -58 -10
-86 -10 -86 -84 -82 -60 4 -66 2 -90 -24 -31 -33 -39 -63 -31 -107 12 -58 29
-71 109 -78 53 -5 80 -4 101 7 16 7 38 11 51 8 16 -4 29 3 51 29 16 19 34 42
39 52 10 16 13 15 42 -14 61 -61 107 -32 133 85 11 48 5 104 -10 104 -5 0 -10
-10 -12 -22 -2 -16 -11 -2 -31 48 -28 72 -80 137 -118 147 -15 4 -24 -4 -40
-36z"/>
<path d="M1710 2598 c-64 -33 -85 -68 -83 -133 3 -97 33 -115 119 -76 l42 19
10 -23 c10 -21 88 -81 147 -113 31 -16 68 1 107 52 18 22 38 36 55 38 20 2 28
9 28 23 0 15 -10 21 -45 28 -42 9 -46 8 -71 -22 -14 -17 -30 -31 -37 -31 -22
0 -21 19 3 48 23 27 29 29 121 35 136 8 174 -11 174 -85 l0 -41 -53 6 c-29 4
-67 10 -85 13 -35 7 -26 14 -160 -129 -35 -37 -66 -67 -68 -67 -2 0 -4 6 -4
14 0 7 -7 19 -15 26 -8 7 -15 28 -15 48 0 29 -8 43 -46 80 l-47 45 -64 -6
c-75 -6 -103 -25 -103 -72 0 -57 20 -96 56 -111 18 -8 38 -14 44 -14 15 0 12
28 -6 60 -10 15 -14 35 -11 45 10 24 41 14 45 -15 2 -14 8 -29 13 -34 5 -6 9
-27 9 -48 0 -29 8 -45 38 -78 49 -51 98 -56 132 -12 11 15 30 38 40 52 l19 25
0 -70 c-1 -113 -23 -153 -52 -95 -16 31 -43 37 -67 15 -18 -16 -21 -15 -64 20
-63 51 -99 38 -82 -30 7 -27 149 -155 172 -155 8 0 22 13 32 29 12 22 24 29
44 29 57 -2 88 55 88 163 0 65 3 74 30 106 17 18 30 40 30 48 0 18 -5 18 -33
4 -16 -8 -14 -3 10 22 l32 33 64 -12 c35 -7 85 -12 110 -12 40 0 49 -4 70 -32
33 -44 49 -77 57 -113 4 -23 12 -31 35 -35 24 -4 41 -23 92 -100 65 -97 77
-128 46 -115 -38 17 -67 11 -82 -18 -15 -27 -15 -29 8 -48 25 -21 83 -25 125
-9 36 13 42 50 18 118 -11 31 -23 70 -27 86 -7 32 -79 132 -106 146 -10 6 -27
10 -37 10 -17 0 -21 9 -27 53 -9 71 -27 95 -80 108 -44 11 -45 12 -45 51 0 71
-30 110 -112 150 -70 34 -76 35 -163 30 -101 -5 -162 -31 -183 -78 -15 -32
-33 -22 -26 15 10 49 -12 94 -61 129 -25 18 -49 32 -53 32 -4 0 -28 -10 -52
-22z m77 -98 c14 -29 7 -46 -13 -29 -12 9 -20 9 -39 -1 -13 -7 -32 -9 -42 -6
-16 7 -14 11 15 37 38 35 61 34 79 -1z"/>
<path d="M1880 2588 c0 -13 11 -36 24 -53 21 -27 26 -28 50 -17 33 15 33 36 1
67 -32 33 -75 34 -75 3z"/>
<path d="M2272 2209 c-65 -12 -182 -115 -182 -159 0 -72 39 -66 125 20 53 53
72 67 82 58 19 -15 16 -36 -7 -48 -30 -16 -24 -35 15 -47 32 -10 39 -9 65 14
17 14 30 34 30 44 0 42 -64 140 -83 128 -1 -1 -21 -5 -45 -10z"/>
<path d="M1632 2108 c-7 -7 -12 -44 -12 -96 l0 -84 45 -45 c27 -26 45 -53 45
-66 0 -34 -27 -65 -58 -69 -26 -3 -27 -5 -30 -74 -4 -99 9 -168 32 -172 30 -6
64 7 90 34 l24 26 25 -37 c19 -28 24 -45 20 -74 -6 -46 18 -106 45 -113 12 -3
32 0 46 8 22 11 32 11 61 -2 19 -7 43 -14 53 -14 10 0 41 -24 69 -52 47 -48
52 -58 55 -103 l3 -50 44 -3 44 -3 -7 40 c-6 40 -82 189 -114 224 -8 10 -35
23 -60 29 -35 9 -47 18 -60 44 -18 39 -31 42 -57 14 -18 -20 -19 -19 -68 72
-28 51 -55 96 -61 101 -19 13 -60 -3 -83 -31 l-23 -27 0 54 c0 47 2 52 18 46
29 -12 86 -16 97 -8 6 4 26 32 44 61 31 49 33 55 18 70 -16 15 -19 14 -46 -12
-29 -28 -51 -28 -51 -1 0 8 10 20 23 26 12 6 24 14 27 16 2 2 -26 32 -63 66
l-67 63 0 65 c0 66 -10 89 -40 89 -9 0 -21 -5 -28 -12z"/>
<path d="M2193 1986 c-54 -37 -69 -57 -59 -81 8 -23 52 -12 88 22 32 30 31 31
51 -72 13 -67 13 -70 -10 -104 -28 -41 -26 -65 3 -69 24 -3 80 39 89 68 8 24
-42 235 -58 248 -30 23 -58 20 -104 -12z"/>
<path d="M2383 1994 c-16 -25 -16 -31 0 -113 9 -47 19 -104 23 -126 15 -102
37 -130 92 -119 34 7 42 -9 42 -88 0 -80 11 -90 63 -63 17 8 40 12 57 8 62
-12 74 36 44 168 -16 72 -33 91 -59 69 -10 -8 -12 -25 -8 -62 5 -41 3 -50 -8
-46 -8 3 -17 21 -20 41 -8 52 -24 65 -85 73 -50 6 -54 8 -54 33 -1 14 -7 44
-15 66 -16 45 -14 51 13 36 23 -12 62 11 62 37 0 23 -90 112 -113 112 -9 0
-24 -12 -34 -26z"/>
<path d="M2147 1868 c-55 -19 -59 -19 -71 -3 -12 17 -16 15 -52 -24 -21 -23
-51 -49 -66 -57 -32 -17 -74 -85 -83 -134 -8 -46 27 -100 74 -116 21 -7 44
-26 60 -50 30 -43 63 -64 103 -64 31 0 48 37 48 106 0 53 -66 196 -89 192 -31
-6 -35 -34 -14 -84 20 -45 21 -74 3 -74 -4 0 -13 14 -20 30 -7 17 -23 39 -36
49 -20 16 -23 23 -15 45 6 14 24 32 40 40 16 9 37 26 45 38 22 31 38 13 72
-87 23 -67 33 -85 48 -85 17 0 18 5 11 48 -13 78 -10 110 13 135 14 15 22 36
22 60 0 51 -21 59 -93 35z"/>
<path d="M2324 1668 c-45 -35 -59 -56 -85 -125 -22 -60 -39 -81 -39 -48 0 22
-18 18 -25 -5 -8 -25 3 -105 20 -147 25 -59 85 -66 127 -14 15 19 22 22 26 12
3 -8 19 -30 37 -50 25 -27 42 -36 71 -38 22 -1 72 -7 113 -13 70 -10 75 -10
98 12 28 26 48 87 40 120 -4 14 -18 37 -31 51 -21 22 -34 27 -76 27 -48 0 -50
-1 -40 -21 7 -11 25 -25 41 -31 21 -7 29 -16 29 -34 0 -36 -28 -41 -56 -10
-18 19 -35 26 -62 26 -33 0 -41 6 -72 48 -43 58 -67 63 -114 22 -32 -28 -56
-33 -56 -11 0 4 14 29 31 54 21 32 41 49 62 55 44 11 56 55 30 102 -24 43 -33
46 -69 18z"/>
<path d="M2444 1586 c-18 -13 -18 -16 -1 -67 22 -68 44 -96 82 -105 29 -7 29
-6 14 12 -22 25 -39 79 -39 120 0 41 -27 60 -56 40z"/>
</g>
</svg>
